<?xml version="1.0" encoding="utf-8"?>
<!-- Generator: Adobe Illustrator 21.0.2, SVG Export Plug-In . SVG Version: 6.00 Build 0)  -->
<svg version="1.1" id="Layer_1" xmlns="http://www.w3.org/2000/svg" xmlns:xlink="http://www.w3.org/1999/xlink" x="0px" y="0px"
	 viewBox="0 0 85.3 38.1" style="enable-background:new 0 0 85.3 38.1;" xml:space="preserve">
<g>
	<path d="M0,0.9h11.5L20,23.5l8.4-22.6h11.6L24.6,37.3c0,0,0,0-9.3,0L0,0.9z"/>
	<path d="M73.6,24.1c-1.5,6.4-7.2,10.6-13,12.7c-9.8,3.6-20.5-0.5-24.5-11.3S37.5,4.9,47.3,1.3C57.1-2.4,67.5,2,71.5,12.7
		c0.3,0.9,0.8,2.3,1,3.2l-25,9.3c2,3.8,6.9,3.9,10.5,2.6c2.8-1,5.4-3.2,6.3-6L73.6,24.1z M60.1,13.3c-2.1-4-6.5-4.2-9.3-3.2
		c-2.9,1.1-6.2,4-5.4,8.7L60.1,13.3z"/>
	<path d="M78.5,25.1c3.7,0,6.8,2.7,6.8,6.5c0,3.8-3.1,6.6-6.8,6.6c-3.7,0-6.7-2.7-6.7-6.6C71.8,27.8,74.8,25.1,78.5,25.1z"/>
</g>
</svg>
