<?xml version="1.0" encoding="utf-8"?>
<!-- Generator: Adobe Illustrator 21.0.2, SVG Export Plug-In . SVG Version: 6.00 Build 0)  -->
<svg version="1.1" id="Layer_1" xmlns="http://www.w3.org/2000/svg" xmlns:xlink="http://www.w3.org/1999/xlink" x="0px" y="0px"
	 viewBox="0 0 85.3 38.1" style="enable-background:new 0 0 85.3 38.1;" xml:space="preserve">
<style type="text/css">
	.st0{fill:#333333;}
	.st1{fill:#E051A3;}
</style>
<g>
	<path class="st0" d="M0,0.9h11.5L20,23.5l8.4-22.6H40L24.6,37.3c0,0,0,0-9.3,0L0,0.9z"/>
	<path class="st0" d="M72.6,11c2.8,6,0.9,12.8-2.4,18c-5.5,8.9-16.4,12.3-26.3,6.2s-11.6-17.1-6.1-26c5.4-9,16.3-11.9,26.1-6
		c0.8,0.5,2,1.3,2.8,1.9L52.7,28c3.9,1.8,7.8-1.2,9.9-4.4c1.6-2.5,2.3-5.9,1.3-8.6L72.6,11z M55.3,10.9c-4.1-1.9-7.7,0.7-9.3,3.2
		c-1.6,2.7-2.4,7,1.1,10.2L55.3,10.9z"/>
	<path class="st1" d="M78.5,25.1c3.7,0,6.8,2.7,6.8,6.5s-3.1,6.6-6.8,6.6c-3.7,0-6.7-2.7-6.7-6.6C71.8,27.8,74.8,25.1,78.5,25.1z"/>
</g>
</svg>
